<?xml version="1.0" encoding="utf-8"?>
<!-- Generator: Adobe Illustrator 16.0.4, SVG Export Plug-In . SVG Version: 6.00 Build 0)  -->
<!DOCTYPE svg PUBLIC "-//W3C//DTD SVG 1.1//EN" "http://www.w3.org/Graphics/SVG/1.1/DTD/svg11.dtd">
<svg version="1.1" id="Layer_1" xmlns="http://www.w3.org/2000/svg" xmlns:xlink="http://www.w3.org/1999/xlink" x="0px" y="0px"
	 width="679.91px" height="115.158px" viewBox="0 0 679.91 115.158" enable-background="new 0 0 679.91 115.158"
	 xml:space="preserve">
<g>
	<g>
		<path fill="#A3958A" d="M109.414,67.358c0-11.695,7.433-20.676,19.678-20.676c10.366,0,16.913,5.374,18.185,14.189h-11.197
			c-0.604-2.549-2.989-4.652-6.537-4.652c-5.544,0-8.371,4.652-8.371,11.142c0,6.48,3.209,11.307,8.812,11.307
			c4.216-0.004,6.265-2.276,6.986-4.936h-7.43v-8.209h18.518v21.508l-7.711,0.008l-0.888-4.217l-0.108-0.004
			c-2.49,3.609-6.537,5.163-11.36,5.163c-5.324,0-9.875-1.835-13.083-5.27C111.245,78.825,109.414,73.504,109.414,67.358"/>
		<polygon fill="#A3958A" points="149.652,47.406 161.242,47.406 161.242,77.113 175.284,77.113 175.284,87.031 149.652,87.035 		
			"/>
		<path fill="#A3958A" d="M204.034,82.822h-0.11c-2.497,3.605-6.538,5.159-11.369,5.159c-5.317,0-9.861-1.835-13.081-5.27
			c-3.657-3.887-5.483-9.208-5.485-15.351c0-11.698,7.423-20.679,19.674-20.679c10.37,0,16.91,5.374,18.184,14.189h-11.196
			c-0.612-2.549-2.992-4.652-6.544-4.652c-5.541,0-8.369,4.652-8.371,11.142c0.002,6.477,3.219,11.307,8.812,11.303
			c4.217,0,6.265-2.272,6.99-4.932h-7.432v-8.205l18.515-0.004v21.508h-7.701L204.034,82.822z"/>
	</g>
</g>
<g>
	<path fill="#C6AE9A" stroke="#C6AE9A" stroke-width="2" stroke-miterlimit="10" d="M258.957,57.833
		c0,1.893-0.642,3.601-1.924,5.127c-1.283,1.525-2.992,2.601-5.126,3.225c2.716,0.52,4.853,1.647,6.407,3.384
		c1.555,1.736,2.333,3.902,2.333,6.498c0,3.307-1.153,5.952-3.458,7.936c-2.306,1.967-5.362,2.949-9.169,2.949h-15.604v-39.25h14.68
		c3.614,0,6.45,0.786,8.508,2.359C257.838,51.829,258.957,54.421,258.957,57.833z M233.246,65.852h15.765
		c2.538-0.071,4.691-0.891,6.461-2.459s2.654-3.51,2.654-5.826c0-2.958-1.019-5.212-3.056-6.763
		c-2.038-1.55-4.719-2.325-8.043-2.325h-13.781V65.852z M233.246,66.629v19.545h14.719c3.414,0,6.247-0.894,8.499-2.682
		c2.234-1.858,3.351-4.263,3.351-7.212c0-2.948-0.983-5.276-2.949-6.983c-1.967-1.707-4.549-2.596-7.749-2.668H233.246z"/>
	<path fill="#C6AE9A" stroke="#C6AE9A" stroke-width="2" stroke-miterlimit="10" d="M298.518,72.902h-18.553l-5.442,14.049h-0.885
		l15.121-39.25h0.992l15.094,39.25h-0.885L298.518,72.902z M280.233,72.125h18.017l-9.008-23.324L280.233,72.125z"/>
	<path fill="#C6AE9A" stroke="#C6AE9A" stroke-width="2" stroke-miterlimit="10" d="M346.792,58.144
		c0,6.426-3.575,9.881-10.724,10.362l11.582,18.445h-0.858L335.129,68.56h-14.263v18.392h-0.831v-39.25h14.719
		c3.7,0,6.631,0.904,8.794,2.712C345.71,52.221,346.792,54.798,346.792,58.144z M334.379,67.782c7.721,0,11.582-2.383,11.582-7.148
		s-1.005-7.982-3.016-9.651s-4.741-2.504-8.19-2.504h-13.888v19.304H334.379z"/>
	<path fill="#C6AE9A" stroke="#C6AE9A" stroke-width="2" stroke-miterlimit="10" d="M364.664,86.951h-0.831v-39.25h0.831V86.951z"/>
	<path fill="#C6AE9A" stroke="#C6AE9A" stroke-width="2" stroke-miterlimit="10" d="M396.289,86.656
		c4.057,0,7.186-0.897,9.383-2.691c2.199-1.795,3.299-4.192,3.299-7.192s-1.064-5.245-3.191-6.736s-5.514-2.647-10.16-3.469
		c-4.648-0.821-8.035-1.99-10.162-3.509c-2.127-1.518-3.19-3.697-3.19-6.538s1.113-5.097,3.338-6.769
		c2.225-1.671,5.322-2.507,9.29-2.507c3.958,0,7.061,1.011,9.309,3.03s3.621,4.709,4.123,8.069h-0.83
		c-0.482-3.217-1.789-5.741-3.915-7.574c-2.127-1.831-5.04-2.748-8.739-2.748c-3.701,0-6.582,0.751-8.647,2.253
		c-2.064,1.501-3.097,3.574-3.097,6.219s0.983,4.649,2.949,6.016s5.273,2.469,9.919,3.308c4.647,0.822,8.115,2.04,10.402,3.656
		s3.432,4.059,3.432,7.326s-1.201,5.856-3.605,7.768s-5.895,2.866-10.469,2.866c-4.559,0-8.16-1.193-10.805-3.579
		c-2.646-2.386-4.075-5.51-4.29-9.37h0.831c0.464,5.761,2.439,9.229,5.925,10.406C390.873,86.068,393.84,86.656,396.289,86.656z"/>
	<path fill="#C6AE9A" stroke="#C6AE9A" stroke-width="2" stroke-miterlimit="10" d="M436.574,86.951V48.479h-14.531v-0.777h29.893
		v0.777h-14.531v38.473H436.574z"/>
	<path fill="#C6AE9A" stroke="#C6AE9A" stroke-width="2" stroke-miterlimit="10" d="M485.41,72.902h-18.553l-5.441,14.049h-0.885
		l15.121-39.25h0.992l15.094,39.25h-0.885L485.41,72.902z M467.127,72.125h18.016l-9.008-23.324L467.127,72.125z"/>
	<path fill="#C6AE9A" stroke="#C6AE9A" stroke-width="2" stroke-miterlimit="10" d="M522.746,68.56v-0.777h14.934v19.169h-0.83
		v-11.1c-0.574,3.307-2.197,6.063-4.869,8.271c-2.67,2.207-5.951,3.311-9.842,3.311c-5.795,0-10.346-1.872-13.654-5.616
		c-3.307-3.744-4.961-8.503-4.961-14.276s1.605-10.6,4.814-14.478c3.211-3.879,7.668-5.818,13.373-5.818
		c4.23,0,7.707,1.086,10.432,3.258s4.383,4.991,4.975,8.459h-0.832c-0.605-3.182-2.174-5.8-4.705-7.855
		c-2.533-2.056-5.822-3.084-9.869-3.084c-2.852,0-5.365,0.532-7.541,1.596s-4.355,2.927-6.539,5.59s-3.275,6.774-3.275,12.333
		s1.572,10.134,4.719,13.727c3.148,3.593,7.502,5.389,13.064,5.389c4.268,0,7.785-1.445,10.555-4.337
		c2.771-2.891,4.156-6.746,4.156-11.564V68.56H522.746z"/>
	<path fill="#C6AE9A" stroke="#C6AE9A" stroke-width="2" stroke-miterlimit="10" d="M582.201,58.144
		c0,6.426-3.576,9.881-10.725,10.362l11.582,18.445h-0.857L570.537,68.56h-14.262v18.392h-0.832v-39.25h14.719
		c3.701,0,6.631,0.904,8.795,2.712C581.119,52.221,582.201,54.798,582.201,58.144z M569.787,67.782
		c7.721,0,11.582-2.383,11.582-7.148s-1.006-7.982-3.016-9.651c-2.012-1.669-4.742-2.504-8.191-2.504h-13.887v19.304H569.787z"/>
	<path fill="#C6AE9A" stroke="#C6AE9A" stroke-width="2" stroke-miterlimit="10" d="M620.877,72.902h-18.553l-5.443,14.049h-0.885
		l15.121-39.25h0.992l15.094,39.25h-0.885L620.877,72.902z M602.592,72.125h18.016L611.6,48.801L602.592,72.125z"/>
	<path fill="#C6AE9A" stroke="#C6AE9A" stroke-width="2" stroke-miterlimit="10" d="M643.225,86.951h-0.83v-39.25h1.152
		l17.078,38.312l17.078-38.312h1.207v39.25h-0.832v-37.99l-16.998,37.99h-0.83l-17.025-37.99V86.951z"/>
</g>
<g>
	<g>
		<path fill="#C6AE9A" d="M46.525,35.688"/>
		<g>
			<path fill="#C6AE9A" d="M53.985,68.171c5.729,16.782-1.712,34.512-16.619,39.602C22.458,112.862,5.729,103.383,0,86.6
				L53.985,68.171z"/>
			<g>
				<path fill="#C6AE9A" d="M51.641,99.548c5.205-1.777,8.042-1.238,6.305,1.199s-7.417,5.883-12.623,7.661l-13.862,4.732
					c-5.205,1.777-11.808,2.523-14.674,1.658c-2.865-0.865-0.951-3.027,4.254-4.804L51.641,99.548z"/>
			</g>
			<path fill="#C6AE9A" d="M65.628,72.964c2.049,4.017-0.274,9.307-5.192,11.816c-2.541,1.296-5.276,1.596-7.608,1.027
				c1.239-0.263,2.523-0.715,3.787-1.36c4.917-2.509,7.655-6.987,6.116-10.004c-1.54-3.017-6.772-3.429-11.689-0.921
				c-1.264,0.646-2.384,1.42-3.324,2.269c0.908-2.223,2.756-4.26,5.297-5.558C57.932,67.726,63.579,68.95,65.628,72.964z"/>
		</g>
		<path fill="#C6AE9A" d="M78.358,62.315l-9.968,7.356c-0.007,0.007-0.01,0.009-0.016,0.009L65.1,72.101l-1.875,1.385l-1.269-1.035
			l-3.507-2.867c0,0,0.072-0.228,0.2-0.647c1.431-4.601,10.062-32.195,11.169-32.489c1.157-0.309,4.161,1.85,2.723,8.447
			l-8.024,16.11l8.728-15.21c1.098,0.125,2.732,0.848,2.254,4.124v0.003l-7.562,11.083l8.163-10.439
			c1.013,1.054,2.832,3.317,1.81,5.127l-8.324,7.415l8.571-6.69C79.167,57.333,81.237,59.761,78.358,62.315z"/>
		<path fill="#C6AE9A" d="M86.617,68.227l-9.913,1.279l9.109-0.579c0.529,0.429,2.023,1.885,0.079,3.451l-8.131,0.366l8.157,0.163
			c0.215,0.832,0.465,2.626-1.135,3.397l-6.443-0.394l5.852,0.742c0.228,0.543,0.875,2.748-3.705,2.335L66.322,76.95l-0.353-0.05
			l-4.014-4.449c0,0,0.969-0.425,2.523-1.098c1.066-0.462,2.407-1.038,3.896-1.672c0.006,0,0.008-0.002,0.016-0.009
			c6.808-2.895,16.708-6.977,17.659-6.649C87.399,63.488,89.878,65.967,86.617,68.227z"/>
	</g>
	<path fill="#C6AE9A" fill-opacity="0.3" d="M28.135,73.956c0,0-27.553-11.749-15.258-27.061s25.717-20.248,22.865-29.353
		C31.513,4.045,15.062,0,15.062,0s35.029,7.84,27.244,25.553c-3.799,8.644-28.969,19.487-26.885,32.043
		C17.547,70.396,28.135,73.956,28.135,73.956z"/>
	<path fill="#C6AE9A" fill-opacity="0.3" d="M42.522,27.47c3.282,3.592,5.001,7.912,1.95,12.479
		c-3.888,5.818-23.657,10.483-23.756,19.917c-0.102,9.616,7.167,13.58,7.167,13.58s-18.594-12.13-7.644-21.719
		c10.949-9.589,21.382-11.459,20.476-18.472c-0.127-0.98-0.343-1.913-0.633-2.798L42.522,27.47z"/>
</g>
</svg>
