<?xml version="1.0" encoding="utf-8"?>
<!-- Generator: Adobe Illustrator 16.0.4, SVG Export Plug-In . SVG Version: 6.00 Build 0)  -->
<!DOCTYPE svg PUBLIC "-//W3C//DTD SVG 1.1//EN" "http://www.w3.org/Graphics/SVG/1.1/DTD/svg11.dtd">
<svg version="1.1" id="Layer_1" xmlns="http://www.w3.org/2000/svg" xmlns:xlink="http://www.w3.org/1999/xlink" x="0px" y="0px"
	 width="20px" height="20px" viewBox="0 0 20 20" enable-background="new 0 0 20 20" xml:space="preserve">
<g>
	<path fill="#B99F89" d="M10,18.771c-2.343,0-4.545-0.912-6.202-2.568c-3.42-3.421-3.42-8.986-0.001-12.406
		C5.455,2.141,7.658,1.228,10,1.228c2.343,0,4.545,0.913,6.203,2.569c3.419,3.42,3.419,8.985,0,12.406
		C14.546,17.859,12.344,18.771,10,18.771z M10,3.177c-1.822,0-3.536,0.709-4.825,1.999c-2.66,2.66-2.659,6.988,0.001,9.648
		c1.288,1.289,3.001,1.998,4.824,1.998c1.822,0,3.536-0.709,4.824-1.998c2.66-2.66,2.66-6.989,0-9.649
		C13.536,3.887,11.822,3.177,10,3.177z"/>
</g>
<rect x="8.905" y="2.797" transform="matrix(-0.7073 -0.7069 0.7069 -0.7073 9.9902 24.3238)" fill="#B99F89" width="2.25" height="14.594"/>
</svg>
