<?xml version="1.0" encoding="utf-8"?>
<!-- Generator: Adobe Illustrator 16.0.4, SVG Export Plug-In . SVG Version: 6.00 Build 0)  -->
<!DOCTYPE svg PUBLIC "-//W3C//DTD SVG 1.1//EN" "http://www.w3.org/Graphics/SVG/1.1/DTD/svg11.dtd">
<svg version="1.1" id="Layer_1" xmlns="http://www.w3.org/2000/svg" xmlns:xlink="http://www.w3.org/1999/xlink" x="0px" y="0px"
	 width="120.871px" height="111.557px" viewBox="0 0 120.871 111.557" enable-background="new 0 0 120.871 111.557"
	 xml:space="preserve">
<path fill="none" stroke="#B89F89" stroke-width="3" stroke-miterlimit="10" d="M98.204,40.969H1.669
	c0,0,5.679,52.999,25.553,56.785"/>
<path fill="none" stroke="#B89F89" stroke-width="3" stroke-miterlimit="10" d="M98.204,56.111h20.821
	c0,0,4.731,23.661-20.821,24.608"/>
<line fill="none" stroke="#B89F89" stroke-width="3" stroke-miterlimit="10" x1="7.348" y1="110.057" x2="98.204" y2="110.057"/>
<path fill="none" stroke="#B89F89" stroke-width="3" stroke-miterlimit="10" d="M46.488,0.817c0,0-9.848,15.151,0,22.727
	s-4.377,11.364-4.377,11.364"/>
<path fill="none" stroke="#B89F89" stroke-width="3" stroke-miterlimit="10" d="M56.488,0.817c0,0-9.848,15.151,0,22.727
	c9.849,7.576-4.377,11.364-4.377,11.364"/>
<path fill="none" stroke="#B89F89" stroke-width="3" stroke-miterlimit="10" d="M66.337,0.817c0,0-9.848,15.151,0,22.727
	c9.849,7.575-4.377,11.364-4.377,11.364"/>
</svg>
