<?xml version="1.0" encoding="utf-8"?>
<!-- Generator: Adobe Illustrator 16.0.4, SVG Export Plug-In . SVG Version: 6.00 Build 0)  -->
<!DOCTYPE svg PUBLIC "-//W3C//DTD SVG 1.1//EN" "http://www.w3.org/Graphics/SVG/1.1/DTD/svg11.dtd">
<svg version="1.1" id="Layer_1" xmlns="http://www.w3.org/2000/svg" xmlns:xlink="http://www.w3.org/1999/xlink" x="0px" y="0px"
	 width="78.931px" height="301.548px" viewBox="0 0 78.931 301.548" enable-background="new 0 0 78.931 301.548"
	 xml:space="preserve">
<path fill-rule="evenodd" clip-rule="evenodd" fill="#323232" d="M24.741,297.206"/>
<path fill-rule="evenodd" clip-rule="evenodd" fill="#323232" d="M60.129,148.99c0.998-0.082,1.35,0.332,1.311,1.293
	c-0.148,3.571-1.002,7.036-3.006,9.913c-1.117,1.602-2.457,3.018-3.098,4.912c-0.111,0.33-0.389,0.834-0.266,0.979
	c1.621,1.887-0.785,3.289-0.557,5.037c0.244,1.873,0.252,3.787,0.256,5.682c0.002,1.896,0.027,3.814-0.234,5.684
	c-0.568,4.045-1.098,8.115-2.037,12.084c-1.158,4.883-0.99,9.721,0.02,14.516c1.074,5.1,2.223,10.221,3.904,15.141
	c1.387,4.062,0.672,8.027,0.277,11.939c-0.729,7.242-2.025,14.432-3.201,21.623c-0.516,3.145-1.377,6.232-1.971,9.365
	c-0.512,2.699-0.314,5.457,0.904,7.879c2.475,4.922,1.498,9.814,0.385,14.764c-0.033,0.145-0.088,0.285-0.133,0.43
	c-1.311,4.176-1.418,4.113-5.883,4.301c-4.125,0.172-8.232,0.734-12.355,1.021c-2.381,0.166-4.776,0.164-7.165,0.17
	c-3.948,0.006-7.897-0.014-11.846-0.08c-1.494-0.025-2.984-0.227-4.479-0.312c-1.719-0.098-2.137-1.871-3.33-2.656
	c-0.072-0.047,0.631-1.273,1.123-2.248c-1.115-0.82-2.374-1.672-3.524-2.65c-0.245-0.209-0.292-1.16-0.104-1.289
	c1.291-0.877,2.483-1.867,4.334-1.514c7.821,1.496,13.964-1.283,18.677-7.574c1.371-1.83,3.05-3.453,4.251-5.381
	c0.844-1.352,1.44-3.031,1.581-4.615c0.384-4.307,0.741-8.646,0.607-12.959c-0.236-7.578-0.846-15.148-1.3-22.721
	c-0.129-2.143-0.199-4.291-0.413-6.426c-0.257-2.562-0.638-5.113-0.967-7.67c-0.013-0.1-0.031-0.199-0.066-0.293
	c-1.236-3.279-2.604-6.516-3.664-9.852c-0.674-2.121-1.27-4.393-1.24-6.588c0.093-7.035-1.588-13.742-3.085-20.525
	c-0.987-4.471-1.431-9.068-2.007-13.623c-0.144-1.131-0.51-1.379-1.621-1.564c-1.637-0.275-3.325-0.812-4.728-1.668
	c-0.708-0.434-0.976-1.783-1.196-2.773c-0.379-1.703-0.639-3.441-0.797-5.18c-0.063-0.689,0.14-1.484,0.454-2.113
	c1.425-2.854,2.973-5.647,4.372-8.513c0.256-0.524,0.291-1.498-0.029-1.891c-0.701-0.858-0.484-1.348,0.024-2.203
	c1.399-2.354,2.679-4.79,3.844-7.268c0.301-0.639,0.206-1.63-0.053-2.332c-0.674-1.828-0.383-3.623-0.239-5.465
	c0.068-0.867-0.368-1.763-0.482-2.657c-0.108-0.841-0.157-1.701-0.115-2.546c0.043-0.866,0.227-1.726,0.353-2.587
	c0.201-1.375,0.401-2.748,0.609-4.121c0.163-1.072,0.224-2.021-0.946-2.719c-0.877-0.523-1.039-1.523-0.414-2.369
	c2.126-2.879,1.896-6.327,2.414-9.594c0.101-0.639,0.229-1.302,0.156-1.933c-0.09-0.789-0.353-1.562-0.584-2.328
	c-0.084-0.278-0.339-0.502-0.439-0.778c-0.98-2.696-2.055-5.364-2.891-8.105c-1.429-4.684,0.041-8.639,3.368-12.037
	c0.731-0.747,1.442-1.515,2.304-2.421c-0.679-0.481-1.308-0.928-2.192-1.557c1.904-0.855,3.33-1.475,4.735-2.137
	c0.49-0.231,1.064-0.468,1.374-0.875c1.957-2.575,3.824-5.218,5.779-7.794c0.668-0.88,1.38-1.833,2.289-2.405
	c2.91-1.832,3.528-3.347,2.445-6.612c-0.646-1.943-1.302-3.885-1.836-5.859c-0.574-2.121-2.033-3.11-4.049-3.493
	c-0.687-0.131-1.386-0.187-2.074-0.31c-2.315-0.415-2.698-0.995-2.685-3.297c0.014-2.477-0.073-4.96-0.273-7.428
	c-0.048-0.593-0.655-1.191-1.111-1.689c-0.87-0.949-0.938-1.801,0.021-2.726c0.931-0.898,1.886-1.787,2.69-2.792
	c0.573-0.716,0.996-1.586,1.343-2.445c0.438-1.083,0.546-2.337,1.136-3.314c0.736-1.221,0.733-2.261-0.086-3.304
	c-1.127-1.434-0.774-2.785,0.067-4.155c0.078-0.128,0.188-0.242,0.241-0.379c1.539-3.966,4.559-4.651,8.264-3.662
	c1.332,0.355,2.471,0.131,3.512-0.7c0.873-0.696,1.77-0.676,2.811-0.4c2.992,0.793,5.992,1.582,9.023,2.201
	c4.012,0.82,6.484,3.684,9.035,6.483c0.16,0.176,0.303,0.443,0.311,0.672c0.076,2.543,1.076,4.808,1.98,7.128
	c0.695,1.787,1.09,3.694,1.58,5.557c0.15,0.569,0.184,1.17,0.266,1.757c0.178,1.28,0.154,2.629,0.564,3.83
	c1.393,4.086,1.555,8.262,1.338,12.512c-0.062,1.226-0.467,2.698,1.246,3.413c0.377,0.157,0.52,0.875,0.988,1.74
	c-0.76-0.389-1.107-0.566-1.832-0.937c0.258,1.812,0.447,3.328,0.695,4.835c0.266,1.613,0.748,3.211,0.812,4.829
	c0.033,0.87-0.613,1.768-0.957,2.65c-0.035,0.09-0.146,0.161-0.158,0.249c-0.166,1.221,0.117,2.915-0.576,3.557
	c-1.117,1.035-0.648,1.988-0.729,3.029c-0.174,2.285-0.381,4.568-0.656,6.842c-0.029,0.258-0.586,0.452-1.02,0.762
	c-0.469,1.158-1.236,2.523-1.537,3.984c-0.203,0.989,0.252,2.114,0.42,3.228c-0.127-0.019-0.295,0.008-0.377-0.063
	c-1.875-1.615-2.105-1.513-3.201,0.71c-3.186,6.46-4.336,13.492-5.316,20.476c-0.373,2.653-0.67,5.267-1.482,7.818
	c-0.076,0.236-0.197,0.515-0.139,0.729c0.703,2.555-1.129,4.239-2.059,6.244c-0.146,0.316,0.055,1.021,0.338,1.269
	c1.424,1.248,1.416,1.933-0.418,3.084c1.494,0.991,1.586,2.362,1.449,3.805c-0.135,1.406,0.26,2.603,1.092,3.779
	c0.5,0.706,0.557,1.721,0.832,2.591c0.461,1.462,1.037,2.896,1.389,4.383c0.682,2.876,1.914,5.691,1.176,8.765
	c-0.137,0.561-0.217,1.135-0.322,1.704c-0.137-0.009-0.273-0.019-0.412-0.029c0-0.483,0.197-1.219-0.037-1.402
	c-0.611-0.476-1.41-0.988-2.137-0.994c-4.434-0.038-8.879-0.104-13.293,0.215c-1.334,0.097-2.682,1.267-3.82,2.193
	c-0.416,0.338-0.473,1.48-0.248,2.092c0.115,0.316,1.215,0.422,1.852,0.375 M30.091,69.367c1.563,0.878,1.835,0.77,3.26-1.05
	c-0.327-1.025-0.616-1.933-0.938-2.94C31.674,66.647,30.91,67.96,30.091,69.367z M70.572,61.084c0-1.275,0-2.21,0-3.146
	c-0.154,0-0.309,0-0.461,0C70.174,58.874,69.027,59.811,70.572,61.084z"/>
</svg>
