<?xml version="1.0" encoding="utf-8"?>
<!-- Generator: Adobe Illustrator 16.0.4, SVG Export Plug-In . SVG Version: 6.00 Build 0)  -->
<!DOCTYPE svg PUBLIC "-//W3C//DTD SVG 1.1//EN" "http://www.w3.org/Graphics/SVG/1.1/DTD/svg11.dtd">
<svg version="1.1" id="Layer_1" xmlns="http://www.w3.org/2000/svg" xmlns:xlink="http://www.w3.org/1999/xlink" x="0px" y="0px"
	 width="78.931px" height="301.548px" viewBox="0 0 78.931 301.548" enable-background="new 0 0 78.931 301.548"
	 xml:space="preserve">
<path fill-rule="evenodd" clip-rule="evenodd" fill="#323232" d="M24.741,297.206"/>
<path fill-rule="evenodd" clip-rule="evenodd" fill="#323232" d="M14.906,289.514c-0.863-0.279-1.927-0.63-2.995-0.966
	c-0.794-0.251-1.599-0.464-2.385-0.737c-0.247-0.086-0.63-0.306-0.637-0.478c-0.069-1.713-1.525-3.299-0.56-5.088
	c0.871-1.618,2.445-2.287,4.126-2.541c1.405-0.211,2.88-0.279,4.285-0.104c1.78,0.223,3.381-0.062,4.935-0.872
	c2.426-1.264,4.852-2.522,7.279-3.783c0.166-0.085,0.397-0.129,0.483-0.266c1.443-2.267,2.934-4.505,3.236-7.292
	c0.116-1.069,0.227-2.22,0.699-3.153c0.769-1.521,1.42-2.96,1.25-4.747c-0.077-0.818,0.38-1.695,0.638-2.533
	c0.231-0.748,0.291-1.321-0.407-1.984c-0.497-0.471-0.797-1.362-0.825-2.08c-0.249-6.172-0.224-12.359-0.692-18.513
	c-0.217-2.859-1.357-5.647-2.057-8.472c-0.333-1.347-0.677-2.693-0.902-4.06c-0.171-1.035-0.457-1.863-1.562-2.241
	c-0.362-0.122-0.826-0.462-0.91-0.789c-0.299-1.151-0.432-2.341-1.883-2.712c-0.062-0.016-0.071-1.241,0.22-1.447
	c0.917-0.649,0.818-1.22,0.212-1.955c-0.174-0.211-0.348-0.464-0.406-0.724c-0.998-4.464-2.747-8.718-3.046-13.395
	c-0.307-4.797-1.241-9.556-1.956-14.323c-0.343-2.299-0.879-4.566-1.186-6.866c-0.097-0.728,0.093-1.61,0.448-2.261
	c0.756-1.388,1.056-2.737,0.538-4.271c-0.188-0.558-0.295-1.224-0.179-1.786c0.577-2.778-0.08-5.455-0.613-8.131
	c-0.106-0.535-0.633-1.013-1.033-1.454c-0.518-0.574-1.103-1.085-1.66-1.623c0.626-0.463,1.252-0.925,1.876-1.392
	c0.068-0.053,0.116-0.135,0.356-0.421c-1.004-0.454-1.933-0.903-2.883-1.301c-1.227-0.512-1.771-1.18-1.369-2.673
	c0.925-3.445,1.648-6.946,2.434-10.427c1.117-4.946,0.796-9.982,0.931-14.993c0.144-5.291,0.43-10.576,0.663-15.864
	c0.226-5.15,0.484-10.3,0.692-15.451c0.187-4.64,0.191-9.291,0.526-13.919c0.285-3.932,1.812-7.536,3.362-11.151
	c1.175-2.741,1.968-5.711,2.452-8.659c0.256-1.566-0.073-3.114,1.057-4.574c1.171-1.514,2.005-3.295,2.929-4.992
	c0.245-0.448,0.477-1.056,0.374-1.514c-0.543-2.398-1.102-4.803-1.865-7.137c-0.236-0.723-1.03-1.422-1.745-1.796
	c-1.142-0.595-2.451-0.857-3.653-1.35c-2.242-0.918-2.912-3.007-1.782-5.147c0.286-0.541,0.367-1.205,0.474-1.824
	c0.119-0.684,0.161-1.382,0.455-2.044c-0.276-0.931-0.364-1.686,0.608-2.505c0.688-0.579,0.241-1.425-0.4-2.053
	c-1.41-1.378-1.315-2.153,0.344-3.304c0.877-0.609,1.74-1.243,2.652-1.795c1.273-0.771,2.185-1.701,2.06-3.342
	c-0.024-0.313,0.243-0.68,0.449-0.971c0.993-1.4,2.003-2.787,3.023-4.166c0.215-0.292,0.536-0.507,0.741-0.804
	c0.476-0.692,1.027-1.366,1.336-2.132c0.493-1.222,1.093-2.225,2.169-3.109c2.538-2.085,5.351-2.45,8.469-2.121
	c1.823,0.192,3.683,0.035,5.634,0.035c0.54,1.354,1.775,1.789,3.134,2.28c1.228,0.444,2.474,1.242,3.332,2.218
	c1.424,1.621,2.52,3.527,3.815,5.267c0.252,0.338,0.977,0.367,1.155,0.71c0.364,0.701,0.678,1.51,0.714,2.29
	c0.104,2.215,0.128,4.44,0.061,6.658c-0.108,3.635-1.678,6.719-3.97,9.424c-1.224,1.445-2.708,2.666-4.032,4.03
	c-1.226,1.261-2.438,2.541-3.572,3.881c-1.307,1.542-1.226,4.873,0.15,6.34c1.897,2.022,3.863,3.982,5.795,5.974
	c0.162,0.166,0.327,0.342,0.434,0.544c2.858,5.416,5.931,10.724,7.165,16.851c0.836,4.148,1.89,8.263,1.61,12.535
	c-0.179,2.729-0.668,5.443-0.78,8.173c-0.12,2.91-0.059,5.838,0.101,8.748c0.236,4.356,0.646,8.704,0.944,13.057
	c0.392,5.697,0.767,11.395,1.107,17.095c0.238,3.985,0.415,7.973,0.604,11.962c0.11,2.319,0.177,4.641,0.283,6.96
	c0.084,1.858-0.521,3.153-2.303,3.492c-3.669,0.696-5.36,3.003-6.291,6.38c-0.507,1.839-1.54,3.533-2.337,5.291
	c-0.556,1.229-0.592,2.56,0.119,3.628c2.465,3.701,1.7,7.704,1.129,11.629c-0.352,2.401-1.26,4.718-1.863,7.086
	c-0.108,0.419-0.116,1.078,0.13,1.337c0.814,0.847,0.474,1.513-0.145,2.18c-0.438,0.477-1.101,0.813-1.374,1.358
	c-0.345,0.688-0.72,1.623-0.52,2.281c1.071,3.514,0.917,7.084,0.624,10.646c-0.08,0.996-0.571,2.088-1.195,2.885
	c-0.993,1.272-1.27,1.971-0.434,3.255c1.132,1.735,1.005,3.508,0.622,5.44c-0.185,0.929,0.108,2.138,0.6,2.975
	c0.967,1.649,0.771,3.35,0.837,5.101c0.054,1.5,0.655,2.98,0.704,4.48c0.172,5.465,0.13,10.94,0.329,16.403
	c0.198,5.423-0.66,10.734-1.347,16.072c-0.036,0.276-0.13,0.581-0.054,0.828c0.586,1.913,0.586,3.711-0.757,5.363
	c-0.192,0.238-0.187,0.747-0.098,1.085c0.356,1.378-0.055,2.554-0.807,3.686c-0.605,0.909-0.43,1.758,0.321,2.517
	c0.327,0.331,0.657,0.659,0.956,1.016c0.7,0.834,0.829,1.694-0.107,2.421c-1.368,1.062-1.442,2.356-1.102,3.941
	c0.487,2.251,0.714,4.554,1.102,6.826c0.166,0.975-0.199,1.576-1.111,1.757c-1.633,0.318-3.286,0.539-4.929,0.822
	c-3.743,0.648-7.483,1.318-11.229,1.957c-1.368,0.233-2.742,0.52-4.123,0.584c-3.292,0.15-6.591,0.202-9.889,0.26
	c-2.952,0.053-5.833-0.309-8.576-1.516"/>
</svg>
