<?xml version="1.0" encoding="utf-8"?>
<!-- Generator: Adobe Illustrator 16.0.4, SVG Export Plug-In . SVG Version: 6.00 Build 0)  -->
<!DOCTYPE svg PUBLIC "-//W3C//DTD SVG 1.1//EN" "http://www.w3.org/Graphics/SVG/1.1/DTD/svg11.dtd">
<svg version="1.1" id="Layer_1" xmlns="http://www.w3.org/2000/svg" xmlns:xlink="http://www.w3.org/1999/xlink" x="0px" y="0px"
	 width="78.931px" height="301.548px" viewBox="0 0 78.931 301.548" enable-background="new 0 0 78.931 301.548"
	 xml:space="preserve">
<path fill="#323232" d="M24.416,35.587c0,0-0.124-2.002,0.709-1.835C25.958,33.918,24.646,32,24.646,32l0.426-1.458l-2.119-1.812
	c0,0,0.022-0.99,0.522-1.49s2.679-2.994,2.679-2.994l-0.329-0.849l-0.66-0.681h0.5l-0.333-1.816l1.333-2.742L28,12.288l-1.833-2.186
	c0,0,2.333-3.509,3.5-2.842s2.5-0.004,2.5-0.004s0.167-2.836,0.667-2.669S37.5,4.151,37.5,4.151l2.667,0.565h4.5l3.834-0.316
	l4.5,1.758c0,0,2.5,1.129,3.5,1.963s4.5,6.981,5.166,8.981s0.5,6.491,0.334,7.324c-0.168,0.833-0.834,5.995-1.668,6.662
	c-0.832,0.667,0,1.665-1.5,2.665s-1.5,1.999-2,2.499s0.334,1.5,1,2c0.668,0.5,2.834,1.333,3.668,4.5
	c0.832,3.167,0.832,3.166,0.832,3.166s1.334,5.833,1.334,6.333s2,5.833,2,7.5s0.5,4.667,0.5,4.667l0.834,3.167l-2.168-3.167l0.5,8
	c0,0,2,8.5-1.832,12l-0.834,2l-1.666,3l-2.958,8.167l-0.788,8.333v4.5c0,0,0.206,1.833-0.46,2.333l-0.231,1.333
	c0,0,1.052,4.5-0.782,5.667l1.694,2.333c0,0,1.013,2,1.013,2.667s0.338,2.5,0.338,2.5c0.668,0.167,2.504,1.667,2.504,1.667
	s1.335,2.667,1.335,3.5s-0.499,1.5,0.835,1.667c0,0,1.833,0.5,0.833,1.667s-1.5,3.666-0.832,3.833c0.666,0.167,1.5,1.167,1.5,1.167
	l0.332,1.5l1.668,1.333l-1.168,0.333l-0.832,7.167l-2.334,7.334c0,0-0.666,3-1.5,2.666s-1.834,2.166-1.834,2.166l-0.832,4
	l-0.668,3.166l-0.5,18.666c0,0,0.212,1-0.288,1.668c-0.5,0.666-0.79,1.5-0.79,1.5v3.168l0.54,2.332l0.435,1.166l-0.28,1l0.152,1
	l0.153,2v1.502l0.872,2.332c0,0,0.769,0.166,0.603,0.832c-0.166,0.668-0.114-0.332-0.114,0.668s0.36,1.666,0.36,1.666l0.513,1.334
	l0.338,1.832l1.004,3l0.169,0.668l0.667,3.332c0,0,2.667,11-0.333,19.5l1.168,1.5c0,0,0.832,6.334,0,7.834c0,0-1.04,1-2.04,1
	l-1.206,0.334v1.168l0.54,0.832l-0.065,4l-0.114,4.666l-0.474,1.832l-0.321,2.834l-0.16,2l-0.83,1c0,0,1.001,1,0.169,1.666
	c-0.834,0.668-0.833,1.334-0.833,1.334s3.335,7,3.001,9l-1,3.668l-3.334,9.666l-2.332,0.166l-0.668,1.334l-4.666,1.149l-0.334-7.849
	h-1.166c0,0-2.168,2.683-5.334,3.183c0,0-2.833,5.757-10.667,5.591c0,0-14,0.631-16-2.703l0.667-0.687c0,0,1.5-3.009,5-3.175
	c0,0,0.333-2.339,5-2.505c0,0,1.667,0.829,3.833-2.003l5.167-10.835l-0.167-2.5c0,0,2-3.501,2.5-3.501S36,268.415,36,268.415
	l-0.789-1.834l1.044-3.166v-3.998l0.372-3.668l-1.063-7l-1.782-1.334l1.525-8.334l1.847,0.002l0.756-4.5l-0.288-4.25l0.356-2.957
	l-0.655-2.98l0.672-2.656l-1.663-2.662l-1.333-2.33l-0.333-1.666l-2-1.332l0.667-2.332L32,207.749l-3.667-15.332l-5.04-19.334
	l-2.039,1.666c0,0,2,1.668,0,1.668c-1,0-7.167-2-7.167-2l-0.833-5v-3l-0.461-2l1.437-3.334l0.718-4l0.319-2l0.987-3v-3.667l1.873-2
	l1.436-3.667l-1.615-5.333c0,0-0.641-3,0.359-3.333s2.013-2,2.013-2l-1.661-4.333c0,0-1.664-7.667-0.997-8.667s0.335-25,0.335-25
	s-3.999-9.333-1.666-13s5-7,5-7L34.667,58.75L37,56.417l1-3c0,0-2-12-7-11.667c0,0-6.333-1.334-5.667-2.667s1-2.667,1-2.667"/>
</svg>
