<?xml version="1.0" encoding="utf-8"?>
<!-- Generator: Adobe Illustrator 16.0.4, SVG Export Plug-In . SVG Version: 6.00 Build 0)  -->
<!DOCTYPE svg PUBLIC "-//W3C//DTD SVG 1.1//EN" "http://www.w3.org/Graphics/SVG/1.1/DTD/svg11.dtd">
<svg version="1.1" id="Layer_1" xmlns="http://www.w3.org/2000/svg" xmlns:xlink="http://www.w3.org/1999/xlink" x="0px" y="0px"
	 width="78.931px" height="301.548px" viewBox="0 0 78.931 301.548" enable-background="new 0 0 78.931 301.548"
	 xml:space="preserve">
<path fill-rule="evenodd" clip-rule="evenodd" fill="#323232" d="M15.479,286.118c-2.182-0.17-3.576-1.387-4.815-2.918
	c-1.48-1.828-1.018-4.039,1.17-4.895c1.003-0.391,2.145-0.414,3.207-0.67c1.588-0.385,3.21-0.701,4.732-1.273
	c3.087-1.158,4.472-3.785,5.423-6.719c0.077-0.238,0.089-0.553,0.251-0.697c2.325-2.082,1.621-4.875,1.695-7.443
	c0.048-1.625,0.42-2.895,1.846-3.84c0.402-0.266,0.807-1.244,0.626-1.557c-0.96-1.658-0.37-3.318-0.262-4.982
	c0.045-0.693,0.212-1.432,0.045-2.076c-0.95-3.656-1.866-7.326-3.021-10.92c-1.298-4.041-2.814-8.012-4.29-11.994
	c-0.249-0.672-0.793-1.232-1.17-1.861c-0.247-0.414-0.697-0.922-0.612-1.283c0.358-1.531-0.799-2.215-1.52-3.189
	c-2.02-2.729-4.229-5.365-5.844-8.322c-0.86-1.576-0.982-3.766-0.851-5.635c0.468-6.674,1.179-13.33,1.816-19.992
	c0.296-3.08,0.673-6.156,0.934-9.24c0.061-0.703-0.043-1.512-0.343-2.141c-2.123-4.449-2.086-9.113-1.308-13.797
	c0.229-1.379,1.174-2.629,1.724-3.967c1.307-3.172,2.455-6.415,3.891-9.527c1.234-2.675,0.838-5.287,0.301-7.968
	c-0.287-1.438,0.057-2.694,1.254-3.613c0.803-0.617,0.947-1.341,0.872-2.353c-0.376-5.092-0.766-10.203,2.195-14.822
	c0.621-0.969,0.376-1.875-0.56-2.631c-3.235-2.619-4.918-9.09-2.091-13.121c0.329-0.47,0.449-1.106,0.591-1.684
	c0.448-1.83,1.645-2.997,3.19-3.971c0.641-0.403,1.174-1.104,1.539-1.786c0.468-0.872,0.832-1.838,1.027-2.807
	c0.211-1.049,0.418-2.197,0.206-3.214c-0.715-3.428,0.36-6.417,1.975-9.305c0.584-1.044,1.429-1.955,1.928-3.032
	c0.697-1.508,1.167-3.121,1.763-4.678c0.729-1.902,1.552-3.771,2.191-5.7c0.182-0.546-0.079-1.27-0.233-1.888
	c-0.152-0.609-0.626-1.197-0.598-1.777c0.039-0.79,0.42-1.563,0.654-2.343c0.592,0.272,1.185,0.544,1.873,0.86
	c-0.084,0.022-0.004,0.021,0.005-0.004c0.692-2.099,2.54-2.726,4.344-3.393c1.148-0.425,1.394-1.228,0.95-2.266
	c-1.432-3.353-2.872-6.702-4.356-10.031c-0.677-1.519-1.919-2.017-3.562-1.856c-1.334,0.131-2.688,0.108-4.031,0.066
	c-1.671-0.053-2.5-1.249-2.488-2.907c0.012-1.755-0.282-3.512-0.443-5.268c-0.041-0.446,0-0.921-0.145-1.331
	c-0.249-0.712-0.452-1.554-0.963-2.035c-0.955-0.9-1.021-1.728-0.382-2.779c0.57-0.938,0.971-2.001,1.645-2.851
	c1.012-1.276,0.612-2.391-0.07-3.568c-2.749-4.743-0.872-11.068,4.014-13.544c0.177-0.09,0.384-0.162,0.515-0.301
	c3.031-3.197,7.222-3.757,11.164-4.526c4.842-0.944,9.555,0.191,13.877,2.555c3.826,2.092,5.15,5.798,5.863,9.802
	c0.184,1.031,0.244,2.083,0.375,3.124c0.229,1.824,0.375,3.577,2.246,4.762c1.209,0.767,2.264,1.973,2.119,3.724
	c-0.027,0.321,0.334,0.701,0.57,1.012c3.529,4.642,3.883,9.961,3.092,15.428c-0.326,2.249-0.658,4.256,1.088,6.139
	c0.803,0.864,1.352,2.078,1.666,3.228c0.141,0.519-0.406,1.498-0.926,1.876c-2.291,1.67-4.842,2.651-7.74,1.973
	c-0.93-0.218-1.801-0.678-2.947-1.124c1.051,3.918,2.109,7.515,2.941,11.164c0.312,1.374-0.061,2.891,0.145,4.304
	c0.654,4.502,0.551,8.87-0.66,13.342c-1.35,4.994-1.951,10.185-3.082,15.245c-0.967,4.33-1.945,8.698-4.646,12.403
	c-0.215,0.293-0.264,0.733-0.314,1.115c-0.186,1.347-0.445,2.698-0.457,4.048c-0.004,0.641,0.33,1.441,0.785,1.895
	c0.842,0.84,0.82,1.513,0.049,2.3c-0.35,0.357-0.67,0.746-1.035,1.084c-0.949,0.876-0.814,1.81-0.279,2.85
	c0.539,1.044,1.121,2.1,1.43,3.22c0.688,2.496,1.15,5.053,1.844,7.546c0.287,1.033,0.932,1.966,1.412,2.946
	c0.361,0.744,0.545,1.364-0.119,2.18c-0.43,0.527-0.58,1.543-0.422,2.243c0.938,4.154,0.133,8.078-1.637,11.785
	c-1.016,2.131-2.531,4.023-3.822,6.023c-0.291,0.447-0.764,0.857-0.854,1.342c-0.928,4.959-1.129,9.965-0.936,15.004
	c0.17,4.443,0.201,8.891,0.248,13.338c0.031,2.99-0.225,5.998,0.014,8.969c0.352,4.344,0.998,8.664,1.59,12.986
	c0.154,1.115,0.676,2.178,0.861,3.291c0.775,4.672,1.842,9.33,2.143,14.037c0.455,7.152,1.701,14.328,0.533,21.51
	c-0.719,4.434-1.842,8.801-2.568,13.232c-0.316,1.93-0.088,3.947-0.121,5.926c-0.039,2.291-0.082,4.584-0.143,6.875
	c-0.059,2.131-0.252,4.266-0.186,6.391c0.082,2.686-2.186,6.57-4.244,7.479c-1.279,0.562-2.793,0.764-4.211,0.805
	c-3.695,0.107-7.397,0.064-11.096,0.029c-4.412-0.045-8.825-0.088-13.234-0.24c-2.828-0.098-5.653-0.35-8.473-0.609
	c-2.555-0.236-2.886-0.6-3.15-2.971c-0.158-1.422,0.902-2.867,2.569-3.469C13.977,286.601,14.731,286.366,15.479,286.118z"/>
</svg>
