<?xml version="1.0" encoding="utf-8"?>
<!-- Generator: Adobe Illustrator 16.0.4, SVG Export Plug-In . SVG Version: 6.00 Build 0)  -->
<!DOCTYPE svg PUBLIC "-//W3C//DTD SVG 1.1//EN" "http://www.w3.org/Graphics/SVG/1.1/DTD/svg11.dtd">
<svg version="1.1" id="Layer_1" xmlns="http://www.w3.org/2000/svg" xmlns:xlink="http://www.w3.org/1999/xlink" x="0px" y="0px"
	 width="78.932px" height="301.547px" viewBox="0 0 78.932 301.547" enable-background="new 0 0 78.932 301.547"
	 xml:space="preserve">
<path fill="#B99F89" d="M24.741,297.206"/>
<path fill="#B99F89" d="M14.906,289.514c-0.863-0.279-1.927-0.631-2.995-0.967c-0.794-0.25-1.599-0.463-2.385-0.736
	c-0.247-0.086-0.63-0.307-0.637-0.479c-0.069-1.713-1.525-3.299-0.561-5.088c0.871-1.617,2.445-2.287,4.126-2.541
	c1.405-0.211,2.88-0.279,4.285-0.104c1.78,0.223,3.381-0.062,4.935-0.872c2.427-1.265,4.853-2.522,7.279-3.783
	c0.166-0.085,0.397-0.129,0.483-0.266c1.442-2.267,2.934-4.505,3.235-7.292c0.116-1.069,0.228-2.221,0.699-3.153
	c0.77-1.521,1.42-2.96,1.25-4.747c-0.077-0.818,0.38-1.695,0.638-2.533c0.231-0.748,0.291-1.32-0.406-1.983
	c-0.497-0.472-0.797-1.362-0.825-2.08c-0.249-6.173-0.224-12.358-0.692-18.513c-0.217-2.859-1.356-5.647-2.057-8.473
	c-0.333-1.347-0.677-2.693-0.902-4.06c-0.171-1.035-0.457-1.863-1.562-2.241c-0.362-0.122-0.826-0.462-0.91-0.789
	c-0.299-1.15-0.432-2.341-1.883-2.712c-0.062-0.017-0.071-1.241,0.22-1.446c0.917-0.65,0.818-1.221,0.212-1.955
	c-0.174-0.211-0.348-0.465-0.406-0.725c-0.998-4.464-2.747-8.719-3.046-13.395c-0.307-4.797-1.24-9.557-1.956-14.324
	c-0.343-2.299-0.879-4.565-1.186-6.865c-0.097-0.729,0.093-1.609,0.448-2.262c0.756-1.387,1.056-2.736,0.538-4.271
	c-0.188-0.558-0.296-1.224-0.18-1.786c0.577-2.777-0.08-5.455-0.612-8.131c-0.106-0.535-0.634-1.013-1.033-1.453
	c-0.519-0.574-1.104-1.086-1.66-1.623c0.626-0.463,1.252-0.926,1.876-1.393c0.068-0.053,0.116-0.135,0.355-0.421
	c-1.004-0.454-1.933-0.903-2.883-1.302c-1.227-0.512-1.771-1.18-1.369-2.672c0.926-3.446,1.648-6.947,2.435-10.428
	c1.117-4.946,0.796-9.982,0.931-14.993c0.145-5.291,0.431-10.576,0.663-15.864c0.227-5.15,0.484-10.3,0.692-15.451
	c0.187-4.64,0.19-9.291,0.525-13.919c0.285-3.932,1.812-7.536,3.362-11.151c1.175-2.741,1.968-5.711,2.452-8.659
	c0.256-1.566-0.073-3.114,1.057-4.574c1.171-1.514,2.005-3.295,2.93-4.992c0.244-0.448,0.477-1.056,0.374-1.514
	c-0.544-2.398-1.103-4.803-1.865-7.137c-0.236-0.723-1.03-1.422-1.745-1.796c-1.143-0.595-2.451-0.857-3.653-1.35
	c-2.242-0.918-2.912-3.007-1.782-5.147c0.286-0.541,0.367-1.205,0.475-1.824c0.119-0.684,0.161-1.382,0.455-2.044
	c-0.276-0.931-0.364-1.687,0.607-2.505c0.688-0.579,0.241-1.425-0.399-2.053c-1.41-1.378-1.315-2.153,0.344-3.304
	c0.877-0.609,1.74-1.243,2.652-1.795c1.272-0.771,2.185-1.701,2.06-3.342c-0.024-0.313,0.243-0.68,0.449-0.971
	c0.993-1.4,2.003-2.787,3.022-4.166c0.216-0.292,0.536-0.507,0.741-0.804c0.477-0.692,1.027-1.366,1.336-2.132
	c0.493-1.222,1.093-2.225,2.169-3.109c2.538-2.085,5.352-2.45,8.47-2.121c1.822,0.192,3.683,0.035,5.634,0.035
	c0.54,1.354,1.774,1.789,3.134,2.28c1.228,0.444,2.474,1.242,3.332,2.218c1.424,1.621,2.52,3.527,3.815,5.267
	c0.252,0.338,0.977,0.367,1.154,0.71c0.364,0.701,0.678,1.51,0.714,2.29c0.104,2.215,0.128,4.44,0.062,6.658
	c-0.108,3.635-1.678,6.719-3.97,9.424c-1.225,1.445-2.708,2.666-4.032,4.03c-1.227,1.261-2.438,2.541-3.572,3.881
	c-1.307,1.542-1.226,4.873,0.15,6.34c1.896,2.022,3.862,3.982,5.795,5.974c0.162,0.166,0.327,0.342,0.434,0.544
	c2.858,5.416,5.931,10.724,7.165,16.851c0.836,4.148,1.89,8.263,1.61,12.535c-0.18,2.729-0.668,5.443-0.78,8.173
	c-0.12,2.91-0.059,5.838,0.101,8.748c0.236,4.356,0.646,8.704,0.944,13.057c0.393,5.697,0.768,11.395,1.107,17.095
	c0.237,3.985,0.415,7.973,0.604,11.962c0.11,2.319,0.177,4.641,0.283,6.96c0.084,1.859-0.521,3.154-2.303,3.492
	c-3.669,0.697-5.36,3.004-6.291,6.381c-0.507,1.839-1.54,3.533-2.337,5.291c-0.557,1.229-0.593,2.56,0.118,3.627
	c2.466,3.701,1.7,7.705,1.13,11.63c-0.353,2.401-1.261,4.718-1.863,7.086c-0.108,0.419-0.116,1.077,0.13,1.337
	c0.814,0.848,0.474,1.514-0.146,2.18c-0.438,0.477-1.101,0.813-1.373,1.358c-0.346,0.688-0.721,1.623-0.521,2.28
	c1.071,3.515,0.917,7.084,0.624,10.646c-0.08,0.996-0.571,2.088-1.195,2.885c-0.993,1.272-1.27,1.971-0.434,3.256
	c1.132,1.734,1.005,3.508,0.622,5.439c-0.186,0.93,0.107,2.139,0.6,2.975c0.967,1.649,0.771,3.351,0.837,5.102
	c0.055,1.5,0.655,2.98,0.704,4.48c0.172,5.465,0.13,10.939,0.329,16.402c0.198,5.424-0.66,10.734-1.347,16.072
	c-0.036,0.275-0.13,0.58-0.055,0.828c0.587,1.912,0.587,3.711-0.757,5.363c-0.191,0.237-0.187,0.746-0.098,1.084
	c0.356,1.379-0.055,2.555-0.807,3.687c-0.605,0.909-0.431,1.758,0.32,2.517c0.327,0.332,0.657,0.659,0.956,1.016
	c0.7,0.834,0.829,1.695-0.106,2.422c-1.368,1.062-1.442,2.355-1.103,3.941c0.487,2.25,0.714,4.553,1.103,6.825
	c0.166,0.976-0.199,1.576-1.111,1.757c-1.633,0.318-3.286,0.539-4.929,0.822c-3.743,0.648-7.483,1.318-11.229,1.957
	c-1.368,0.232-2.742,0.52-4.123,0.584c-3.292,0.15-6.591,0.202-9.889,0.26c-2.952,0.053-5.833-0.309-8.576-1.516"/>
</svg>
