<?xml version="1.0" encoding="utf-8"?>
<!-- Generator: Adobe Illustrator 16.0.4, SVG Export Plug-In . SVG Version: 6.00 Build 0)  -->
<!DOCTYPE svg PUBLIC "-//W3C//DTD SVG 1.1//EN" "http://www.w3.org/Graphics/SVG/1.1/DTD/svg11.dtd">
<svg version="1.1" id="Layer_1" xmlns="http://www.w3.org/2000/svg" xmlns:xlink="http://www.w3.org/1999/xlink" x="0px" y="0px"
	 width="78.931px" height="301.548px" viewBox="0 0 78.931 301.548" enable-background="new 0 0 78.931 301.548"
	 xml:space="preserve">
<path fill="#323232" d="M21.939,297.438c0,0-7.693-1.945-7.46-3.57c0.232-1.626,2.192-3.062,3.121-2.83
	c0.929,0.231,5.392-1.647,5.392-1.647l-1.136-1.404c0,0-0.22-3.953,1.406-4.186c1.625-0.232,9.062-0.932,9.062-0.932l5.577-2.09
	l0.698-2.556c0,0,0.698-3.485,1.626-3.252c0.929,0.232,0.93-0.93,0.93-0.93l-0.464-1.857c0,0,3.251-7.432,1.161-9.057
	c0,0-2.146-3.948-1.915-4.645c0.232-0.697-1.683-21.364-1.683-21.364v-6.967l0.87-1.394l-0.611-1.394l-1.118-0.695l-4.158-6.271
	c0,0-0.221-8.593,0.011-10.218c0.232-1.626-2.084-11.812-2.084-11.812l-7.193-23.653h-2.09l-3.948-1.31c0,0-3.715-3.558-3.715-4.719
	c0-1.162-0.697-7.005,0-7.701l-2.09-0.481l-2.322-0.939l1.625-2.095c0,0,2.554-18.348,3.716-19.045
	c1.161-0.696,1.161-2.555,1.161-2.555l0.232-2.555l2.323-18.578l0.929-12.773l1.161-8.825l1.394-11.146c0,0,1.865-8.36,8.135-16.952
	l-0.226-2.555v-2.322l-1.632-3.02l0.692-1.857l4.062-4.876c0,0-1.684-0.697-1.684-2.09c0-1.393-0.727-3.948-1.655-4.18
	c-0.929-0.232-5.589-0.929-5.589-0.929s-2.097-1.858-1.4-3.483c0,0,0.112-1.162-0.584-1.394c0,0-1.164-0.812-0.467-2.09
	l-0.117-0.813l-0.349-1.393l0.348-0.581l-0.348-1.277L19.21,31.37c0,0-0.929-1.277-0.116-1.857c0.813-0.581,3.832-4.876,3.832-4.876
	l-0.232-1.51c0,0-0.929-0.232-0.813-0.929c0.116-0.696,0.581-1.857,0.581-1.857l1.161-3.948l-0.929-0.929
	c0,0-0.697-3.02,0.464-3.483c1.161-0.465,1.277-0.813,1.625-0.929c0.349-0.116,1.162-1.509,1.162-1.509l2.09-1.394l0.929-0.232
	l0.929-1.277l1.509-0.961l1.974-0.961h1.509l1.858,0.903l2.322-0.072c0,0,1.045-0.267,1.51-0.267c0.464,0,1.741,0.272,1.741,0.272
	l1.161-0.328l2.787-0.803c0,0,2.554,0.702,3.019,1.282c0.464,0.581,3.948,4.183,3.6,6.041c-0.349,1.857,1.509-0.348,1.509-0.348
	s5.109,1.626,5.342,5.69c0,0,1.044,3.251,0.697,4.993c-0.349,1.741-2.439,7.431-2.439,7.431s-3.6,6.85-4.296,7.199
	c-0.697,0.348-2.206,1.857-2.206,1.857l-1.625,1.742l-0.581,1.393l0.116,2.09l3.019,0.232l0.465,4.644l-0.697,0.581l0.581,1.626
	c0,0,6.734,1.974,11.844,21.712c0,0,2.554,15.211,1.973,18.462l-0.115,4.645l0.115,16.72l-1.857,6.967l-0.231,15.559
	c0,0-0.232,4.18,0,4.761c0.231,0.58,0.812,1.857,1.044,2.322c0.232,0.464,1.045,15.095,1.045,15.095l-0.231,10.102
	c0,0-2.206,1.857-3.368,1.974l-2.553,5.689l-0.813,1.394c0,0,0.232,1.741,0.58,2.438c0.349,0.697,1.394,5.69,0.813,6.735
	c-0.58,1.044-0.465,2.322-0.465,2.322l-0.349,4.644c0,0-0.58,3.948-0.232,4.412c0.349,0.465,0.812,3.368,0.812,4.297
	s-1.044,5.572-1.044,5.572s-0.696,1.858-0.116,2.091s1.045,0.812,1.045,0.812l0.349,2.67l0.812,1.742l0.348,2.555
	c0,0-0.131,1.51-0.016,1.857c0.115,0.349,0.1,0.349,0.1,0.349v1.161l0.48,0.813l0.239,1.393l0.064,1.509l0.088,0.93l0.335,1.394
	l0.109,1.51l1.273,34.252l0.347,9.289l-0.115,2.438l0.113,1.51l-0.347,3.134l0.115,1.162l0.465,0.697l-1.51,1.393l-0.349,0.581
	c0,0,1.046,8.012-0.232,8.591l-3.019,0.233l-0.464,3.134l-1.394,0.697l-9.87,0.812l-8.708,0.813
	C39.878,296.219,22.346,297.495,21.939,297.438z"/>
<path fill="#323232" d="M21.939,297.438c0,0-7.693-1.945-7.46-3.57c0.232-1.626,2.192-3.062,3.121-2.83
	c0.929,0.231,5.392-1.647,5.392-1.647l-1.136-1.404c0,0-0.22-3.953,1.406-4.186c1.625-0.232,9.062-0.932,9.062-0.932l5.577-2.09
	l0.698-2.556c0,0,0.698-3.485,1.626-3.252c0.929,0.232,0.93-0.93,0.93-0.93l-0.464-1.857c0,0,3.251-7.432,1.161-9.057
	c0,0-2.146-3.948-1.915-4.645c0.232-0.697-1.683-21.364-1.683-21.364v-6.967l0.87-1.394l-0.611-1.394l-1.118-0.695l-4.158-6.271
	c0,0-0.221-8.593,0.011-10.218c0.232-1.626-2.084-11.812-2.084-11.812l-7.193-23.653h-2.09l-3.948-1.31c0,0-3.715-3.558-3.715-4.719
	c0-1.162-0.697-7.005,0-7.701l-2.09-0.481l-2.322-0.939l1.625-2.095c0,0,2.554-18.348,3.716-19.045
	c1.161-0.696,1.161-2.555,1.161-2.555l0.232-2.555l2.323-18.578l0.929-12.773l1.161-8.825l1.394-11.146c0,0,1.865-8.36,8.135-16.952
	l-0.226-2.555v-2.322l-1.632-3.02l0.692-1.857l4.062-4.876c0,0-1.684-0.697-1.684-2.09c0-1.393-0.727-3.948-1.655-4.18
	c-0.929-0.232-5.589-0.929-5.589-0.929s-2.097-1.858-1.4-3.483c0,0,0.112-1.162-0.584-1.394c0,0-1.164-0.812-0.467-2.09
	l-0.117-0.813l-0.349-1.393l0.348-0.581l-0.348-1.277L19.21,31.37c0,0-0.929-1.277-0.116-1.857c0.813-0.581,3.832-4.876,3.832-4.876
	l-0.232-1.51c0,0-0.929-0.232-0.813-0.929c0.116-0.696,0.581-1.857,0.581-1.857l1.161-3.948l-0.929-0.929
	c0,0-0.697-3.02,0.464-3.483c1.161-0.465,1.277-0.813,1.625-0.929c0.349-0.116,1.162-1.509,1.162-1.509l2.09-1.394l0.929-0.232
	l0.929-1.277l1.509-0.961l1.974-0.961h1.509l1.858,0.903l2.322-0.072c0,0,1.045-0.267,1.51-0.267c0.464,0,1.741,0.272,1.741,0.272
	l1.161-0.328l2.787-0.803c0,0,2.554,0.702,3.019,1.282c0.464,0.581,3.948,4.183,3.6,6.041c-0.349,1.857,1.509-0.348,1.509-0.348
	s5.109,1.626,5.342,5.69c0,0,1.044,3.251,0.697,4.993c-0.349,1.741-2.439,7.431-2.439,7.431s-3.6,6.85-4.296,7.199
	c-0.697,0.348-2.206,1.857-2.206,1.857l-1.625,1.742l-0.581,1.393l0.116,2.09l3.019,0.232l0.465,4.644l-0.697,0.581l0.581,1.626
	c0,0,6.734,1.974,11.844,21.712c0,0,2.554,15.211,1.973,18.462l-0.115,4.645l0.115,16.72l-1.857,6.967l-0.231,15.559
	c0,0-0.232,4.18,0,4.761c0.231,0.58,0.812,1.857,1.044,2.322c0.232,0.464,1.045,15.095,1.045,15.095l-0.231,10.102
	c0,0-2.206,1.857-3.368,1.974l-2.553,5.689l-0.813,1.394c0,0,0.232,1.741,0.58,2.438c0.349,0.697,1.394,5.69,0.813,6.735
	c-0.58,1.044-0.465,2.322-0.465,2.322l-0.349,4.644c0,0-0.58,3.948-0.232,4.412c0.349,0.465,0.812,3.368,0.812,4.297
	s-1.044,5.572-1.044,5.572s-0.696,1.858-0.116,2.091s1.045,0.812,1.045,0.812l0.349,2.67l0.812,1.742l0.348,2.555
	c0,0-0.131,1.51-0.016,1.857c0.115,0.349,0.1,0.349,0.1,0.349v1.161l0.48,0.813l0.239,1.393l0.064,1.509l0.088,0.93l0.335,1.394
	l0.109,1.51l1.273,34.252l0.347,9.289l-0.115,2.438l0.113,1.51l-0.347,3.134l0.115,1.162l0.465,0.697l-1.51,1.393l-0.349,0.581
	c0,0,1.046,8.012-0.232,8.591l-3.019,0.233l-0.464,3.134l-1.394,0.697l-9.87,0.812l-8.708,0.813
	C39.878,296.219,22.346,297.495,21.939,297.438z"/>
</svg>
