<?xml version="1.0" encoding="utf-8"?>
<!-- Generator: Adobe Illustrator 16.0.4, SVG Export Plug-In . SVG Version: 6.00 Build 0)  -->
<!DOCTYPE svg PUBLIC "-//W3C//DTD SVG 1.1//EN" "http://www.w3.org/Graphics/SVG/1.1/DTD/svg11.dtd">
<svg version="1.1" id="Layer_1" xmlns="http://www.w3.org/2000/svg" xmlns:xlink="http://www.w3.org/1999/xlink" x="0px" y="0px"
	 width="78.931px" height="301.548px" viewBox="0 0 78.931 301.548" enable-background="new 0 0 78.931 301.548"
	 xml:space="preserve">
<path fill-rule="evenodd" clip-rule="evenodd" fill="#323232" d="M24.741,297.206"/>
<path fill-rule="evenodd" clip-rule="evenodd" fill="#323232" d="M17.112,289.522c-1.911-0.553-3.792-0.842-5.423-1.644
	c-1.561-0.767-2.18-2.388-1.837-4.168c0.234-1.209,0.909-2.113,2.25-2.263c1.088-0.119,2.187-0.159,3.272-0.297
	c3.591-0.458,7.182-0.898,10.387-2.815c2.228-1.334,4.516-2.567,6.742-3.901c0.412-0.246,0.713-0.737,0.97-1.171
	c0.573-0.97,1.086-1.977,1.626-2.967c0.066-0.124,0.191-0.231,0.21-0.358c0.233-1.518,0.577-3.032,0.617-4.558
	c0.019-0.704-0.384-1.613-0.904-2.105c-1.451-1.371-1.385-2.927,0.353-4.019c1.94-1.22,2.396-2.572,1.339-4.663
	c-1.399-2.769-2.931-5.472-4.399-8.209c-2.863-5.339-4.082-11.186-5.192-17.054c-1.003-5.3-1.996-10.605-2.819-15.936
	c-0.583-3.772-0.926-7.582-1.29-11.384c-0.662-6.894-1.255-13.793-1.882-20.69c-0.23-2.521-0.478-5.041-0.719-7.559
	c-0.044-0.458-0.103-0.914-0.213-1.878c-1.927,2.003-3.904,1.308-5.847,0.888c-1.894-0.413-4.322-3.421-4.277-5.326
	c0.044-1.957-0.144-3.998,0.358-5.842c0.499-1.828,1.723-3.461,2.648-5.169c0.243-0.449,0.562-0.857,1.017-1.54
	c-1.776-0.433-3.32-0.844-4.882-1.176c-1.154-0.246-1.573-0.81-1.363-2.023c2.257-13.092,4.683-26.15,7.911-39.044
	c1.544-6.166,3.273-12.288,4.656-18.488c0.607-2.725,0.441-5.612,0.837-8.396c0.43-3.021,1.127-6.004,1.668-9.011
	c0.388-2.156,0.561-4.363,1.096-6.479c0.94-3.721,2.708-7.039,5.547-9.698c0.659-0.616,0.638-1.28,0.74-2.116
	c0.15-1.234,0.855-2.45,1.513-3.562c1.193-2.017,1.252-1.982-0.094-3.98c-0.053-0.079-0.129-0.157-0.146-0.245
	c-0.604-3.213-3.432-3.791-5.813-4.843c-2.17-0.958-2.662-1.792-2.353-4.079c0.095-0.709-0.103-1.496-0.317-2.201
	c-0.375-1.223-0.771-2.458-1.347-3.592c-0.304-0.598-0.927-1.201-1.545-1.437c-1.448-0.55-1.75-0.885-1.089-2.287
	c0.63-1.334,1.404-2.604,2.173-3.867c0.656-1.079,1.108-2.109,0.291-3.326c-0.169-0.251-0.101-0.715-0.036-1.061
	c0.239-1.251,0.552-2.488,0.769-3.742c0.05-0.287-0.079-0.704-0.278-0.919c-1.032-1.115-0.725-2.42-0.238-3.495
	c0.829-1.834,1.858-3.602,3.013-5.251c0.53-0.758,1.629-1.091,2.344-1.753c2.499-2.313,5.837-2.33,8.816-3.319
	c0.169-0.056,0.378,0.006,0.568,0.013c1.846,0.062,3.693,0.191,5.538,0.166c1.981-0.027,3.663,0.712,5.451,1.47
	c3.043,1.29,4.018,4.1,5.544,6.542c0.127,0.203,0.19,0.45,0.341,0.629c4.647,5.537,4.919,11.708,2.575,18.212
	c-0.831,2.308-1.313,4.563-1.336,7.087c-0.019,1.934-0.153,4.521-2.816,5.445c-0.361,0.126-0.616,0.559-1.096,1.016
	c2.218,0.567,2.68,2.088,3.154,4.019c0.518,2.107,1.87,4.032,2.979,5.967c1.869,3.261,4.152,6.325,5.693,9.729
	c3.642,8.037,4.964,16.566,4.974,25.398c0.007,6.632-0.915,13.144-1.644,19.69c-0.516,4.628-0.385,9.239,0.041,13.865
	c0.312,3.374,0.393,6.769,0.684,10.146c0.432,4.994,0.935,9.982,1.454,14.968c0.415,3.99,0.944,7.968,1.302,11.961
	c0.045,0.502-0.545,1.216-1.03,1.565c-0.466,0.333-1.174,0.374-1.787,0.449c-1.163,0.142-1.878,0.586-1.714,1.925
	c0.041,0.339-0.126,0.765-0.327,1.063c-2.016,2.987-2.971,6.306-3.57,9.844c-0.716,4.233-1.852,8.395-2.792,12.59
	c-0.177,0.791-0.293,1.596-0.436,2.394c-0.033,0.187,0.01,0.493-0.09,0.548c-2.016,1.095-0.373,2.771-0.635,4.142
	c-0.291,1.526-0.29,3.116-0.331,4.682c-0.023,0.949,0.181,1.904,0.17,2.854c-0.036,3.107,0.061,6.173,0.907,9.213
	c0.441,1.582,0.479,3.303,0.513,4.964c0.035,1.684,0.434,3.245,0.788,4.874c0.622,2.853,0.606,5.848,0.835,8.784
	c0.029,0.374-0.199,0.791-0.103,1.129c1.241,4.352,0.582,8.768,0.552,13.167c-0.013,1.906,0.113,3.819,0.304,5.717
	c0.429,4.286,0.125,8.475-1.259,12.583c-0.181,0.536,0.074,1.274,0.28,1.866c0.13,0.376,0.538,0.658,0.832,0.972
	c1.594,1.704,1.718,2.842,0.252,4.663c-1.294,1.612-1.188,3.331-0.747,5.144c0.077,0.321,0.267,0.648,0.24,0.958
	c-0.335,3.869,0.622,7.588,1.312,11.329c0.63,3.419-0.074,4.554-3.502,4.847c-4.231,0.362-8.477,0.569-12.715,0.847
	c-4.096,0.265-8.188,0.68-12.288,0.762c-4.151,0.084-8.313-0.065-12.461-0.297c-2.323-0.131-3.63-2.105-3.469-4.7
	C17.137,290.242,17.112,289.777,17.112,289.522z"/>
</svg>
