<?xml version="1.0" encoding="utf-8"?>
<!-- Generator: Adobe Illustrator 16.0.4, SVG Export Plug-In . SVG Version: 6.00 Build 0)  -->
<!DOCTYPE svg PUBLIC "-//W3C//DTD SVG 1.1//EN" "http://www.w3.org/Graphics/SVG/1.1/DTD/svg11.dtd">
<svg version="1.1" id="Layer_1" xmlns="http://www.w3.org/2000/svg" xmlns:xlink="http://www.w3.org/1999/xlink" x="0px" y="0px"
	 width="97.386px" height="97.772px" viewBox="0 0 97.386 97.772" enable-background="new 0 0 97.386 97.772" xml:space="preserve">
<path fill="none" stroke="#B89F89" stroke-width="3" stroke-miterlimit="10" d="M78.942,40.969H1.669
	c0,0,4.545,42.425,20.455,45.454"/>
<path fill="none" stroke="#B89F89" stroke-width="3" stroke-miterlimit="10" d="M78.942,53.09h16.667c0,0,3.787,18.94-16.667,19.697
	"/>
<line fill="none" stroke="#B89F89" stroke-width="3" stroke-miterlimit="10" x1="6.215" y1="96.272" x2="78.942" y2="96.272"/>
<path fill="none" stroke="#B89F89" stroke-width="3" stroke-miterlimit="10" d="M33.488,0.817c0,0-9.848,15.151,0,22.727
	s-4.377,11.364-4.377,11.364"/>
<path fill="none" stroke="#B89F89" stroke-width="3" stroke-miterlimit="10" d="M43.488,0.817c0,0-9.848,15.151,0,22.727
	s-4.377,11.364-4.377,11.364"/>
<path fill="none" stroke="#B89F89" stroke-width="3" stroke-miterlimit="10" d="M53.338,0.817c0,0-9.849,15.151,0,22.727
	c9.848,7.575-4.377,11.364-4.377,11.364"/>
</svg>
