<?xml version="1.0" encoding="utf-8"?>
<!-- Generator: Adobe Illustrator 16.0.4, SVG Export Plug-In . SVG Version: 6.00 Build 0)  -->
<!DOCTYPE svg PUBLIC "-//W3C//DTD SVG 1.1//EN" "http://www.w3.org/Graphics/SVG/1.1/DTD/svg11.dtd">
<svg version="1.1" id="Layer_1" xmlns="http://www.w3.org/2000/svg" xmlns:xlink="http://www.w3.org/1999/xlink" x="0px" y="0px"
	 width="75.244px" height="137.772px" viewBox="0 0 75.244 137.772" enable-background="new 0 0 75.244 137.772"
	 xml:space="preserve">
<path fill="none" stroke="#B89F89" stroke-width="3" stroke-miterlimit="10" d="M57.623,40.969H1.562
	c0,0,3.298,80.607,14.839,86.364"/>
<path fill="none" stroke="#B89F89" stroke-width="3" stroke-miterlimit="10" d="M13.381,0.817c0,0-9.849,15.151,0,22.727
	S9.004,34.908,9.004,34.908"/>
<path fill="none" stroke="#B89F89" stroke-width="3" stroke-miterlimit="10" d="M23.381,0.817c0,0-9.849,15.151,0,22.727
	s-4.377,11.364-4.377,11.364"/>
<path fill="none" stroke="#B89F89" stroke-width="3" stroke-miterlimit="10" d="M33.23,0.817c0,0-9.849,15.151,0,22.727
	c9.849,7.575-4.377,11.364-4.377,11.364"/>
<path fill="none" stroke="#B89F89" stroke-width="3" stroke-miterlimit="10" d="M57.835,55.014c8.786,0,15.909,10.345,15.909,23.107
	c0,12.761-7.123,23.105-15.909,23.105"/>
<line fill="none" stroke="#B89F89" stroke-width="3" stroke-miterlimit="10" x1="8.26" y1="136.272" x2="57.835" y2="136.272"/>
</svg>
