<?xml version="1.0" encoding="utf-8"?>
<!-- Generator: Adobe Illustrator 16.0.4, SVG Export Plug-In . SVG Version: 6.00 Build 0)  -->
<!DOCTYPE svg PUBLIC "-//W3C//DTD SVG 1.1//EN" "http://www.w3.org/Graphics/SVG/1.1/DTD/svg11.dtd">
<svg version="1.1" id="Layer_1" xmlns="http://www.w3.org/2000/svg" xmlns:xlink="http://www.w3.org/1999/xlink" x="0px" y="0px"
	 width="20px" height="20px" viewBox="0 0 20 20" enable-background="new 0 0 20 20" xml:space="preserve">
<g>
	<path fill="#C6AE9B" d="M14.725,18.111c-0.254,0-0.513-0.066-0.771-0.198l-4.19-2.138l-4.193,2.139
		c-0.654,0.335-1.373,0.219-1.777-0.264c-0.274-0.325-0.378-0.774-0.293-1.265l0.791-4.475L0.929,8.73
		C0.478,8.303,0.305,7.745,0.467,7.237c0.162-0.508,0.625-0.862,1.239-0.95l4.688-0.661l2.08-4.091
		c0.277-0.545,0.759-0.871,1.29-0.871c0.531,0,1.011,0.326,1.291,0.872l2.08,4.091l4.686,0.661c0.615,0.087,1.078,0.442,1.24,0.949
		c0.162,0.507-0.01,1.065-0.459,1.493l-3.365,3.183l0.789,4.473c0.088,0.49-0.018,0.939-0.291,1.267
		C15.486,17.943,15.119,18.111,14.725,18.111z M3.173,8.1l3.275,3.099l-0.781,4.42l4.096-2.09l4.094,2.09l-0.779-4.42L16.354,8.1
		l-4.53-0.639l-2.06-4.05l-2.059,4.05L3.173,8.1z"/>
</g>
</svg>
